<svg width="115" height="14" viewBox="0 0 115 14" fill="none" xmlns="http://www.w3.org/2000/svg">
<path d="M9.28838 13.8115L8.38716 11.397H2.44565L1.47902 13.8115H0L5.55631 0L10.7892 13.8115H9.28838ZM5.4909 3.46355L2.85265 10.2626H7.95835L5.4909 3.46355Z" fill="#EAE9E8"/>
<path d="M18.4463 13.8123V0.484375H19.8817V12.6353H24.108V13.8123H18.4463Z" fill="#EAE9E8"/>
<path d="M32.019 13.8123V0.484375H33.4545V12.6353H37.6807V13.8123H32.019Z" fill="#EAE9E8"/>
<path d="M45.5948 13.8123V0.484375H52.3286V1.72187H47.0303V4.89027H50.6351V6.08509H47.0303V12.653H52.5648V13.8087H45.5948V13.8123Z" fill="#EAE9E8"/>
<path d="M67.2791 13.9996C63.4416 13.9783 60.0076 11.9016 60.0076 7.44946C60.0076 3.27115 63.3544 0.273438 67.7915 0.273438C68.0277 0.273438 68.2639 0.273438 68.5001 0.294774V1.53226C68.2421 1.51093 67.9841 1.48959 67.7297 1.48959C64.2557 1.51093 61.403 3.63031 61.403 7.44946C61.403 11.2259 64.4701 12.8439 67.2355 12.8439C67.4281 12.8439 67.6207 12.8439 67.8133 12.8226V5.49721H64.8734V4.40552H69.1615V13.8289C68.5437 13.9356 67.9005 13.9996 67.2791 13.9996Z" fill="#EAE9E8"/>
<path d="M84.417 10.6012L86.5829 13.8123H84.9948L83.2142 11.1062C82.6364 11.3373 81.7969 11.5258 80.9393 11.5258C80.5105 11.5258 80.0381 11.4831 79.6311 11.4013V13.8158H78.2139V0.484375H80.7431C85.1838 0.484375 86.9208 3.0447 86.9208 6.19177C86.9245 7.76708 86.3249 9.42418 84.417 10.6012ZM81.0266 1.63652H79.6311V10.1994C80.1035 10.3452 80.4887 10.4092 81.0047 10.4092C81.5426 10.4092 82.1858 10.3238 82.571 10.1354L81.35 8.35026L82.4438 7.67818L83.7302 9.58775C84.8022 8.95834 85.5944 7.80264 85.5944 6.35534C85.5944 2.95936 83.3232 1.63652 81.0266 1.63652Z" fill="#EAE9E8"/>
<path d="M95.2896 13.8123V0.484375H96.7068V13.8123H95.2896Z" fill="#EAE9E8"/>
<path d="M113.499 13.8115L112.598 11.397H106.657L105.69 13.8115H104.211L109.767 0L115 13.8115H113.499ZM109.702 3.46355L107.064 10.2626H112.169L109.702 3.46355Z" fill="#EAE9E8"/>
</svg>
