<svg width="116" height="14" viewBox="0 0 116 14" fill="none" xmlns="http://www.w3.org/2000/svg">
<path d="M9.36915 13.8115L8.46009 11.397H2.46692L1.49188 13.8115H0L5.60463 0L10.883 13.8115H9.36915ZM5.53865 3.46355L2.87746 10.2626H8.02755L5.53865 3.46355Z" fill="#0F303F"/>
<path d="M18.6064 13.8123V0.484375H20.0543V12.6353H24.3174V13.8123H18.6064Z" fill="#0F303F"/>
<path d="M32.2974 13.8123V0.484375H33.7453V12.6353H38.0083V13.8123H32.2974Z" fill="#0F303F"/>
<path d="M45.9912 13.8123V0.484375H52.7835V1.72187H47.4391V4.89027H51.0753V6.08509H47.4391V12.653H53.0217V13.8087H45.9912V13.8123Z" fill="#0F303F"/>
<path d="M67.8641 13.9996C63.9932 13.9783 60.5293 11.9016 60.5293 7.44946C60.5293 3.27115 63.9053 0.273438 68.3809 0.273438C68.6192 0.273438 68.8574 0.273438 69.0957 0.294774V1.53226C68.8354 1.51093 68.5752 1.48959 68.3186 1.48959C64.8143 1.51093 61.9369 3.63031 61.9369 7.44946C61.9369 11.2259 65.0306 12.8439 67.8201 12.8439C68.0143 12.8439 68.2086 12.8439 68.4029 12.8226V5.49721H65.4375V4.40552H69.7628V13.8289C69.1397 13.9356 68.4909 13.9996 67.8641 13.9996Z" fill="#0F303F"/>
<path d="M85.1507 10.6012L87.3353 13.8123H85.7335L83.9374 11.1062C83.3545 11.3373 82.5078 11.5258 81.6427 11.5258C81.2102 11.5258 80.7337 11.4831 80.3231 11.4013V13.8158H78.8936V0.484375H81.4448C85.9241 0.484375 87.6762 3.0447 87.6762 6.19177C87.6799 7.76708 87.0751 9.42418 85.1507 10.6012ZM81.7307 1.63652H80.3231V10.1994C80.7996 10.3452 81.1882 10.4092 81.7087 10.4092C82.2512 10.4092 82.9 10.3238 83.2886 10.1354L82.0569 8.35026L83.1603 7.67818L84.4579 9.58775C85.5392 8.95834 86.3383 7.80264 86.3383 6.35534C86.3383 2.95936 84.0473 1.63652 81.7307 1.63652Z" fill="#0F303F"/>
<path d="M96.1182 13.8123V0.484375H97.5477V13.8123H96.1182V13.8123Z" fill="#0F303F"/>
<path d="M114.486 13.8115L113.577 11.397H107.584L106.609 13.8115H105.117L110.722 0L116 13.8115H114.486ZM110.656 3.46355L107.995 10.2626H113.145L110.656 3.46355Z" fill="#0F303F"/>
</svg>
